# xmcd
#
# Track frame offsets: 
#        150
#        13319
#        33012
#        46739
#        65578
#        88794
#        105797
#        123450
#        130558
#        143561
#        165078
#        184787
#        201785
#        212516
#        223572
#        240604
#        255887
#
# Disc length: 3640 seconds
#
# Revision: 0
# Processed by: cddbd v1.5.2PL0 Copyright (c) Steve Scherf et al.
# Submitted via: ExactAudioCopyFreeDBPlugin 1.0
#
DISCID=d40e3611
DTITLE=Sir Oliver Mally, Ripoff Raskolnikov and Hans Irsic - Late In The
DTITLE=Evening
DYEAR=1995
DGENRE=Blues
TTITLE0=Little Wheel
TTITLE1=Meet me in the Bottom
TTITLE2=Hansons Groove
TTITLE3=Bring me flowers
TTITLE4=Commit a crime
TTITLE5=Come on in my kitchen
TTITLE6=Buckets of rain
TTITLE7=Bootle up and go
TTITLE8=Crow Jane
TTITLE9=Blackcat Bone
TTITLE10=Hellhound on my trail
TTITLE11=Wlakin' Blues
TTITLE12=Mini Skirts
TTITLE13=Brown Liquor
TTITLE14=Hard times killing floor
TTITLE15=Can't get along with you
TTITLE16=Late in the evening
EXTD=
EXTT0=
EXTT1=
EXTT2=
EXTT3=
EXTT4=
EXTT5=
EXTT6=
EXTT7=
EXTT8=
EXTT9=
EXTT10=
EXTT11=
EXTT12=
EXTT13=
EXTT14=
EXTT15=
EXTT16=
PLAYORDER=
